name ./resultDataOpenSim/trcMotMarkerGrf/sub09/grf-13-08.mot
datacolumns 19
datarows 25
range 0.95600000 1.05200000
endheader

                time	     ground_force_vx	     ground_force_vy	     ground_force_vz	     ground_force_px	     ground_force_py	     ground_force_pz	   l_ground_force_vx	   l_ground_force_vy	   l_ground_force_vz	   l_ground_force_px	   l_ground_force_py	   l_ground_force_pz	     ground_torque_x	     ground_torque_y	     ground_torque_z	   l_ground_torque_x	   l_ground_torque_y	   l_ground_torque_z	
          0.95600000	          0.00000000	          0.00000000	          0.00000000	          0.00000000	          0.00000000	          0.00000000	          3.89559136	        413.25763477	         18.58372650	          0.14553491	         -0.05000000	         -0.04603084	          0.00000000	          0.00000000	          0.00000000	          0.00000000	         -0.63223630	          0.00000000	
          0.96000000	          0.00000000	          0.00000000	          0.00000000	          0.00000000	          0.00000000	          0.00000000	          5.46645587	        416.46788943	         19.53249780	          0.14612925	         -0.05000000	         -0.04573038	          0.00000000	          0.00000000	          0.00000000	          0.00000000	         -0.70589021	          0.00000000	
          0.96400000	          0.00000000	          0.00000000	          0.00000000	          0.00000000	          0.00000000	          0.00000000	          7.21499419	        420.08474200	         20.49989888	          0.14670787	         -0.05000000	         -0.04542410	          0.00000000	          0.00000000	          0.00000000	          0.00000000	         -0.80190128	          0.00000000	
          0.96800000	          0.00000000	          0.00000000	          0.00000000	          0.00000000	          0.00000000	          0.00000000	          9.16810907	        424.23570409	         21.53644340	          0.14726957	         -0.05000000	         -0.04509220	          0.00000000	          0.00000000	          0.00000000	          0.00000000	         -0.92134756	          0.00000000	
          0.97200000	          0.00000000	          0.00000000	          0.00000000	          0.00000000	          0.00000000	          0.00000000	         11.39575011	        428.98605287	         22.67562134	          0.14782472	         -0.05000000	         -0.04475343	          0.00000000	          0.00000000	          0.00000000	          0.00000000	         -1.06515322	          0.00000000	
          0.97600000	          0.00000000	          0.00000000	          0.00000000	          0.00000000	          0.00000000	          0.00000000	         14.00494177	        434.29052155	         23.89558079	          0.14838686	         -0.05000000	         -0.04445602	          0.00000000	          0.00000000	          0.00000000	          0.00000000	         -1.23484137	          0.00000000	
          0.98000000	          0.00000000	          0.00000000	          0.00000000	          0.00000000	          0.00000000	          0.00000000	         17.10938186	        440.02795935	         25.12724560	          0.14895781	         -0.05000000	         -0.04422693	          0.00000000	          0.00000000	          0.00000000	          0.00000000	         -1.43241278	          0.00000000	
          0.98400000	          0.00000000	          0.00000000	          0.00000000	          0.00000000	          0.00000000	          0.00000000	         20.80032562	        446.04996450	         26.29695758	          0.14952047	         -0.05000011	         -0.04405361	          0.00000000	          0.00000000	          0.00000000	          0.00000000	         -1.65960119	          0.00000000	
          0.98800000	          0.00000000	          0.00000000	          0.00000000	          0.00000000	          0.00000000	          0.00000000	         25.12585117	        452.19311359	         27.35261232	          0.15004153	         -0.05000071	         -0.04392577	          0.00000000	          0.00000000	          0.00000000	          0.00000000	         -1.91709212	          0.00000000	
          0.99200000	          0.00000000	          0.00000000	          0.00000000	          0.00000000	          0.00000000	          0.00000000	         30.07501755	        458.32124351	         28.25043591	          0.15050809	         -0.05000100	         -0.04385763	          0.00000000	          0.00000000	          0.00000000	          0.00000000	         -2.20405919	          0.00000000	
          0.99600000	          0.00000000	          0.00000000	          0.00000000	          0.00000000	          0.00000000	          0.00000000	         35.57274914	        464.42151801	         28.93963097	          0.15091810	         -0.05000100	         -0.04384324	          0.00000000	          0.00000000	          0.00000000	          0.00000000	         -2.51800449	          0.00000000	
          1.00000000	          0.00000000	          0.00000000	          0.00000000	          0.00000000	          0.00000000	          0.00000000	         41.49360435	        470.61448662	         29.37573259	          0.15124752	         -0.05000100	         -0.04385015	          0.00000000	          0.00000000	          0.00000000	          0.00000000	         -2.85483973	          0.00000000	
          1.00400000	          0.00000000	          0.00000000	          0.00000000	          0.00000000	          0.00000000	          0.00000000	         47.70544731	        477.03829840	         29.54350434	          0.15147982	         -0.05000100	         -0.04385173	          0.00000000	          0.00000000	          0.00000000	          0.00000000	         -3.20923044	          0.00000000	
          1.00800000	          0.00000000	          0.00000000	          0.00000000	          0.00000000	          0.00000000	          0.00000000	         54.12182976	        483.77831649	         29.46180894	          0.15163909	         -0.05000100	         -0.04383750	          0.00000000	          0.00000000	          0.00000000	          0.00000000	         -3.57513446	          0.00000000	
          1.01200000	          0.00000000	          0.00000000	          0.00000000	          0.00000000	          0.00000000	          0.00000000	         60.71126596	        490.89204865	         29.17331290	          0.15174777	         -0.05000100	         -0.04377536	          0.00000000	          0.00000000	          0.00000000	          0.00000000	         -3.94632827	          0.00000000	
          1.01600000	          0.00000000	          0.00000000	          0.00000000	          0.00000000	          0.00000000	          0.00000000	         67.45389097	        498.40680625	         28.73215901	          0.15183722	         -0.05000100	         -0.04362313	          0.00000000	          0.00000000	          0.00000000	          0.00000000	         -4.31675051	          0.00000000	
          1.02000000	          0.00000000	          0.00000000	          0.00000000	          0.00000000	          0.00000000	          0.00000000	         74.29178482	        506.31733494	         28.19026429	          0.15197508	         -0.05000100	         -0.04338668	          0.00000000	          0.00000000	          0.00000000	          0.00000000	         -4.68062619	          0.00000000	
          1.02400000	          0.00000000	          0.00000000	          0.00000000	          0.00000000	          0.00000000	          0.00000000	         81.11655943	        514.66719063	         27.58537328	          0.15222932	         -0.05000100	         -0.04309273	          0.00000000	          0.00000000	          0.00000000	          0.00000000	         -5.03240397	          0.00000000	
          1.02800000	          0.00000000	          0.00000000	          0.00000000	          0.00000000	          0.00000000	          0.00000000	         87.78969967	        523.59578601	         26.94198269	          0.15261941	         -0.05000100	         -0.04275901	          0.00000000	          0.00000000	          0.00000000	          0.00000000	         -5.36655042	          0.00000000	
          1.03200000	          0.00000000	          0.00000000	          0.00000000	          0.00000000	          0.00000000	          0.00000000	         94.16199689	        533.26233527	         26.28211727	          0.15313998	         -0.05000100	         -0.04240917	          0.00000000	          0.00000000	          0.00000000	          0.00000000	         -5.67729857	          0.00000000	
          1.03600000	          0.00000000	          0.00000000	          0.00000000	          0.00000000	          0.00000000	          0.00000000	        100.08029673	        543.76361275	         25.63230245	          0.15376329	         -0.05000100	         -0.04206711	          0.00000000	          0.00000000	          0.00000000	          0.00000000	         -5.95853339	          0.00000000	
          1.04000000	          0.00000000	          0.00000000	          0.00000000	          0.00000000	          0.00000000	          0.00000000	        105.40502035	        555.13333713	         25.02167333	          0.15444199	         -0.05000100	         -0.04175217	          0.00000000	          0.00000000	          0.00000000	          0.00000000	         -6.20400762	          0.00000000	
          1.04400000	          0.00000000	          0.00000000	          0.00000000	          0.00000000	          0.00000000	          0.00000000	        110.05738159	        567.37060572	         24.47431829	          0.15512558	         -0.05000100	         -0.04148221	          0.00000000	          0.00000000	          0.00000000	          0.00000000	         -6.40795027	          0.00000000	
          1.04800000	          0.00000000	          0.00000000	          0.00000000	          0.00000000	          0.00000000	          0.00000000	        114.06253739	        580.43107128	         24.00398843	          0.15576595	         -0.05000100	         -0.04126501	          0.00000000	          0.00000000	          0.00000000	          0.00000000	         -6.56591593	          0.00000000	
          1.05200000	          0.00000000	          0.00000000	          0.00000000	          0.00000000	          0.00000000	          0.00000000	        117.53490279	        594.18446014	         23.61616170	          0.15632441	         -0.05000100	         -0.04109416	          0.00000000	          0.00000000	          0.00000000	          0.00000000	         -6.67557290	          0.00000000	
